<?xml version="1.0" standalone="no"?>
<!DOCTYPE svg PUBLIC "-//W3C//DTD SVG 20010904//EN"
 "http://www.w3.org/TR/2001/REC-SVG-20010904/DTD/svg10.dtd">
<svg version="1.0" xmlns="http://www.w3.org/2000/svg"
 width="372.000000pt" height="372.000000pt" viewBox="0 0 372.000000 372.000000"
 preserveAspectRatio="xMidYMid meet">
<metadata>
Created by potrace 1.14, written by Peter Selinger 2001-2017
</metadata>
<g transform="translate(0.000000,372.000000) scale(0.100000,-0.100000)"
fill="#000000" stroke="none">
<path d="M1515 3696 c-180 -47 -314 -126 -442 -259 -82 -85 -160 -203 -190
-288 l-17 -46 -125 -6 c-220 -9 -367 -73 -517 -222 -77 -76 -98 -105 -137
-185 -87 -176 -81 -104 -85 -1085 -3 -940 -2 -969 49 -1109 85 -233 276 -403
525 -466 79 -20 103 -20 1235 -18 l1154 3 75 23 c362 110 619 404 670 767 8
56 10 384 8 1115 -4 1014 -4 1036 -25 1105 -47 161 -101 262 -200 379 -104
124 -275 234 -448 288 -69 22 -81 22 -755 25 l-685 2 -90 -23z m1397 -327 c76
-16 205 -80 264 -133 64 -57 138 -163 164 -238 39 -113 41 -160 38 -1178 l-3
-985 -27 -78 c-46 -128 -114 -222 -212 -292 -68 -48 -125 -79 -133 -72 -2 3 8
28 22 57 14 29 35 86 46 128 18 72 19 118 19 975 0 1003 3 957 -70 1112 -93
199 -265 345 -485 411 -54 16 -120 18 -672 21 -364 2 -613 8 -613 13 0 19 127
145 183 181 54 35 148 72 207 82 60 10 1221 7 1272 -4z m-427 -731 c62 -32
129 -103 158 -166 l22 -47 0 -870 0 -870 -26 -56 c-34 -72 -96 -134 -168 -168
l-56 -26 -865 0 -865 0 -56 26 c-76 36 -133 90 -166 157 l-28 57 -3 860 c-3
949 -5 911 60 1001 34 48 100 98 155 119 32 11 185 13 913 12 l875 -2 50 -27z"/>
</g>
</svg>
